<svg width="224" height="81" viewBox="0 0 224 81" fill="#FFFFFF" xmlns="http://www.w3.org/2000/svg">
<g clip-path="url(#clip0_708_3798)">
<path d="M77.8265 25.5339H97.0278V46.9138H90.3853V42.0724C87.5095 45.7567 83.1764 47.5868 77.3714 47.5868C71.5665 47.5868 66.8848 45.7035 63.0649 41.9417C59.245 38.175 57.3375 33.4981 57.3375 27.9063C57.3375 22.3144 59.245 17.6617 63.0649 13.8951C66.8848 10.1284 71.644 8.24991 77.3714 8.24991C81.9708 8.24991 86.0038 9.48932 89.4703 11.9343C92.9367 14.4082 95.1687 17.5794 96.166 21.4816H87.6692C86.73 19.6806 85.3308 18.2524 83.5298 17.1776C81.6997 16.127 79.6566 15.5896 77.3714 15.5896C73.8759 15.5896 70.9468 16.7709 68.6035 19.1142C66.2651 21.4526 65.079 24.3865 65.079 27.9063C65.079 31.426 66.2603 34.389 68.6278 36.7274C70.9662 39.0658 73.9001 40.252 77.3666 40.252C80.0827 40.252 82.5034 39.5258 84.5755 38.1024C86.6477 36.679 88.0469 34.7666 88.7682 32.4282H77.8217V25.5436L77.8265 25.5339Z" fill="#FFFFFF"/>
<path d="M128.86 35.3476H106.541C107.51 38.9254 110.332 41.2348 114.099 41.2348C117.11 41.2348 119.773 39.8356 120.877 37.8748H128.512C127.49 40.7797 125.66 43.1181 123.051 44.8949C120.417 46.696 117.405 47.582 113.987 47.582C109.683 47.582 106.081 46.1828 103.205 43.3602C100.33 40.5376 98.8772 37.0421 98.8772 32.8445C98.8772 28.647 100.33 25.1805 103.205 22.3579C106.081 19.5596 109.688 18.1652 113.987 18.1652C118.287 18.1652 121.864 19.5644 124.745 22.3579C127.621 25.1805 129.073 28.7051 129.073 32.9268C129.073 33.9484 128.991 34.7569 128.86 35.3476ZM113.992 24.4301C112.215 24.4301 110.686 24.9433 109.369 25.9648C108.052 27.0154 107.137 28.3856 106.653 30.1043H121.361C120.877 28.3856 119.962 27.0106 118.645 25.9648C117.299 24.9433 115.74 24.4301 113.992 24.4301Z" fill="#FFFFFF"/>
<path d="M155.367 21.1233C157.386 23.1132 158.379 25.7469 158.379 29.0537V46.909H151.199V31.3679C151.199 29.4603 150.632 27.9546 149.533 26.7975C148.405 25.6695 146.924 25.103 145.099 25.103C143.109 25.103 141.521 25.6937 140.31 26.8508C139.1 28.0321 138.48 29.5959 138.48 31.5034V46.9138H131.33V18.8382H138.48V22.3095C140.683 19.5402 143.67 18.17 147.408 18.17C150.715 18.17 153.349 19.1674 155.367 21.1282V21.1233Z" fill="#FFFFFF"/>
<path d="M165.578 14.6987C164.285 14.6987 163.211 14.2679 162.349 13.4061C161.487 12.5443 161.056 11.4985 161.056 10.2349C161.056 8.9713 161.487 7.9207 162.349 7.06376C163.211 6.20682 164.285 5.77109 165.578 5.77109C166.871 5.77109 167.946 6.20198 168.807 7.06376C169.669 7.92554 170.1 8.9713 170.1 10.2349C170.1 11.4985 169.669 12.5491 168.807 13.4061C167.946 14.263 166.871 14.6987 165.578 14.6987ZM162 46.9138V18.8382H169.151V46.9138H162Z" fill="#FFFFFF"/>
<path d="M191.896 18.8382H199.047V46.9138H191.896V43.5006C189.718 46.2166 186.895 47.5868 183.37 47.5868C180.223 47.5868 177.672 46.5894 175.735 44.6286C173.775 42.6678 172.806 40.0583 172.806 36.829V18.8382H179.957V34.7327C179.957 36.5337 180.495 37.9619 181.569 39.0368C182.62 40.1116 184.014 40.649 185.738 40.649C187.568 40.649 189.045 40.0825 190.202 38.9835C191.33 37.8796 191.896 36.4272 191.896 34.6262V18.843V18.8382Z" fill="#FFFFFF"/>
<path d="M204.363 44.924C202.344 43.1762 201.352 41.0266 201.352 38.4994H208.585C208.585 39.3854 208.909 40.1116 209.582 40.7313C210.226 41.351 211.006 41.6705 211.95 41.6705C213.697 41.6705 215.067 40.5425 215.067 39.1433C215.067 37.6085 213.509 36.4272 210.391 35.6187C204.61 34.2486 201.734 31.3146 201.758 26.7976C201.758 24.1105 202.727 21.9851 204.687 20.4504C206.624 18.9156 209.016 18.1652 211.838 18.1652C214.661 18.1652 217.111 18.998 219.047 20.6683C220.984 22.3386 221.952 24.3768 221.952 26.7976H214.743C214.743 25.2628 213.479 24.0524 211.785 24.0524C210.25 24.0524 208.962 25.103 208.962 26.3667C208.962 27.9014 210.604 29.0827 213.857 29.8912C219.502 31.3146 222.33 34.2195 222.354 38.5478C222.354 41.3461 221.361 43.549 219.367 45.1612C217.348 46.7734 214.874 47.582 211.891 47.582C208.909 47.582 206.377 46.696 204.363 44.9192V44.924Z" fill="#FFFFFF"/>
<path d="M66.1005 56.3353C66.8848 57.1778 67.277 58.2187 67.277 59.4629C67.277 60.7072 66.8848 61.7529 66.1005 62.5954C65.3065 63.4378 64.3285 63.8541 63.1569 63.8541C61.9223 63.8541 60.9347 63.3555 60.2085 62.3533V63.6508H58.3639V51.8279H60.2085V56.5726C60.9395 55.5801 61.9223 55.0814 63.1569 55.0814C64.3285 55.0814 65.3065 55.4978 66.1005 56.3305V56.3353ZM62.7986 62.0725C63.5297 62.0725 64.1446 61.8256 64.6432 61.3269C65.1322 60.8282 65.3791 60.2037 65.3791 59.4581C65.3791 58.7125 65.1322 58.0976 64.6432 57.599C64.1446 57.1003 63.5297 56.8534 62.7986 56.8534C62.0676 56.8534 61.4527 57.1003 60.954 57.599C60.4554 58.0976 60.2085 58.7125 60.2085 59.4581C60.2085 60.2037 60.4554 60.8282 60.954 61.3269C61.4527 61.8256 62.0676 62.0725 62.7986 62.0725Z" fill="#FFFFFF"/>
<path d="M74.544 55.2847H76.5968L71.7214 66.7687H68.7633V65.079H70.4385L71.0969 63.5878L67.5626 55.2847H69.6687L72.1136 61.3849L74.544 55.2847Z" fill="#FFFFFF"/>
<path d="M85.781 52.3266C86.8607 52.3266 87.7709 52.68 88.4923 53.3772C89.2136 54.0744 89.5719 54.9555 89.5719 56.0206C89.5719 57.0858 89.2136 57.9427 88.4826 58.6399C87.7515 59.337 86.8558 59.6905 85.781 59.6905H83.8106V63.6508H81.8643V52.3266H85.7859H85.781ZM85.752 57.8556C86.2652 57.8556 86.6961 57.6813 87.0447 57.3278C87.3884 56.9841 87.5579 56.5435 87.5579 56.0206C87.5579 55.4978 87.3884 55.0427 87.0447 54.6892C86.7009 54.3358 86.2652 54.1615 85.752 54.1615H83.8106V57.8556H85.752Z" fill="#FFFFFF"/>
<path d="M99.129 60.1746H92.196C92.3315 60.7895 92.622 61.2784 93.0771 61.6416C93.5322 62.0095 94.0793 62.1935 94.7136 62.1935C95.7642 62.1935 96.6356 61.719 97.0132 60.9928H99.0079C98.7029 61.8497 98.1655 62.5421 97.3909 63.0601C96.6114 63.5878 95.7157 63.8541 94.699 63.8541C93.4257 63.8541 92.3654 63.4377 91.5182 62.5953C90.6612 61.7529 90.2352 60.712 90.2352 59.4629C90.2352 58.2138 90.6612 57.1777 91.5182 56.3353C92.3654 55.5026 93.4257 55.0862 94.699 55.0862C95.9723 55.0862 97.0471 55.5026 97.9041 56.3353C98.7513 57.1777 99.1774 58.2283 99.1774 59.4871C99.1774 59.7534 99.1629 59.9761 99.129 60.1746ZM94.699 56.742C94.0987 56.742 93.571 56.9163 93.1207 57.2649C92.6705 57.6183 92.3654 58.0831 92.2154 58.6592H97.1924C97.0423 58.0734 96.7373 57.6086 96.2773 57.2649C95.8222 56.9211 95.2994 56.742 94.699 56.742Z" fill="#FFFFFF"/>
<path d="M105.302 56.9502H103.113V61.9611H105.302V63.6508H101.279V56.9502H99.7148V55.2847H101.279V52.8156H103.113V55.2847H105.302V56.9502Z" fill="#FFFFFF"/>
<path d="M111.741 56.9502H109.553V61.9611H111.741V63.6508H107.718V56.9502H106.154V55.2847H107.718V52.8156H109.553V55.2847H111.741V56.9502Z" fill="#FFFFFF"/>
<path d="M119.618 55.2847H121.671L116.795 66.7687H113.837V65.079H115.512L116.171 63.5878L112.637 55.2847H114.743L117.188 61.3849L119.618 55.2847Z" fill="#FFFFFF"/>
<path d="M126.265 63.8541C125.186 63.8541 124.271 63.5249 123.54 62.8616C122.809 62.1983 122.441 61.3704 122.441 60.3683H124.445C124.445 60.8572 124.619 61.2639 124.982 61.5931C125.336 61.9224 125.776 62.0918 126.299 62.0918C126.822 62.0918 127.219 61.9466 127.568 61.6658C127.907 61.385 128.071 61.0315 128.071 60.6152C128.071 59.7582 127.316 59.1482 125.81 58.7803C123.685 58.2429 122.629 57.1051 122.62 55.3477C122.62 54.4423 122.963 53.6725 123.661 53.0576C124.358 52.4428 125.215 52.1281 126.251 52.1281C127.287 52.1281 128.168 52.4476 128.865 53.0819C129.562 53.7161 129.916 54.5101 129.916 55.4639H127.911C127.911 55.0136 127.752 54.636 127.437 54.3358C127.117 54.0405 126.716 53.8855 126.236 53.8855C125.757 53.8855 125.394 54.0163 125.089 54.2777C124.774 54.544 124.624 54.878 124.624 55.2896C124.624 56.1174 125.331 56.6984 126.74 57.047C127.776 57.3133 128.584 57.7103 129.185 58.2477C129.78 58.7948 130.076 59.5404 130.076 60.4941C130.076 61.4479 129.712 62.2564 128.986 62.9003C128.255 63.5394 127.35 63.8638 126.27 63.8638L126.265 63.8541Z" fill="#FFFFFF"/>
<path d="M138.306 61.9756H139.323V63.6508H136.684V62.697C136.089 63.4571 135.266 63.8445 134.201 63.8493C133.334 63.8493 132.613 63.583 132.046 63.0456C131.47 62.5179 131.179 61.8498 131.179 61.0509C131.179 60.2521 131.47 59.6082 132.046 59.0708C132.617 58.5431 133.339 58.2768 134.201 58.2768H136.471V57.018H131.775V55.2799H138.306V61.9708V61.9756ZM136.471 60.9299V59.8309H134.515C134.109 59.8309 133.77 59.9422 133.489 60.1746C133.208 60.407 133.072 60.6975 133.072 61.0412C133.072 61.385 133.208 61.69 133.479 61.9224C133.75 62.1548 134.094 62.2758 134.515 62.2758C135.701 62.2758 136.471 61.7384 136.471 60.9299Z" fill="#FFFFFF"/>
<path d="M146.643 55.2847H148.696L145.147 63.6507H143.23L139.662 55.2847H141.768L144.213 61.3849L146.643 55.2847Z" fill="#FFFFFF"/>
<path d="M157.861 60.1746H150.928C151.063 60.7895 151.354 61.2784 151.809 61.6416C152.264 62.0095 152.811 62.1935 153.445 62.1935C154.496 62.1935 155.367 61.719 155.745 60.9928H157.74C157.435 61.8497 156.897 62.5421 156.123 63.0601C155.343 63.5878 154.448 63.8541 153.431 63.8541C152.158 63.8541 151.097 63.4377 150.25 62.5953C149.393 61.7529 148.967 60.712 148.967 59.4629C148.967 58.2138 149.393 57.1777 150.25 56.3353C151.097 55.5026 152.158 55.0862 153.431 55.0862C154.704 55.0862 155.779 55.5026 156.636 56.3353C157.483 57.1777 157.909 58.2283 157.909 59.4871C157.909 59.7534 157.895 59.9761 157.861 60.1746ZM153.426 56.742C152.826 56.742 152.298 56.9163 151.848 57.2649C151.397 57.6183 151.092 58.0831 150.942 58.6592H155.919C155.769 58.0734 155.464 57.6086 155.004 57.2649C154.549 56.9211 154.026 56.742 153.426 56.742Z" fill="#FFFFFF"/>
<path d="M46.1149 30.2495C46.1149 30.3366 46.1149 30.419 46.1101 30.5061C46.1101 30.5932 46.1101 30.6755 46.1053 30.7627C46.1004 30.9902 46.0956 31.2081 46.0811 31.4357C46.0714 31.6051 46.0568 31.7697 46.0472 31.9343C46.0133 32.4039 45.96 32.8736 45.8922 33.3384H36.6838C36.921 32.3168 37.0469 31.2517 37.0469 30.1575C37.0469 22.4354 30.7869 16.1705 23.0599 16.1705C15.3329 16.1705 9.07774 22.4305 9.07774 30.1575C9.07774 32.859 9.8427 35.3863 11.1741 37.5262C12.3457 39.4095 13.9531 40.9927 15.851 42.1401C16.1124 42.2999 16.3787 42.4451 16.6546 42.5807C16.9258 42.7259 17.2066 42.8567 17.4874 42.9777C17.6181 43.0406 17.7488 43.0987 17.8844 43.1423C17.9183 43.1617 17.9521 43.1714 17.9812 43.181C18.1022 43.2391 18.2233 43.2827 18.354 43.3214C18.5815 43.3989 18.8091 43.4812 19.0415 43.549C19.177 43.5877 19.3126 43.6265 19.4482 43.6604C19.6854 43.7281 19.9323 43.7862 20.1744 43.8346C20.2857 43.8637 20.4068 43.8879 20.5278 43.9024C20.5859 43.9121 20.6392 43.9266 20.6973 43.9363C20.8377 43.9605 20.9732 43.9799 21.1185 43.9993C21.3412 44.0331 21.559 44.0574 21.7866 44.0719C21.9221 44.0912 22.0577 44.1009 22.1933 44.1058C22.3143 44.1155 22.4305 44.1251 22.5564 44.1251C22.7258 44.13 22.8904 44.1348 23.0599 44.1348C23.2293 44.1348 23.3988 44.1348 23.5634 44.1251H23.5779C23.7135 44.1203 23.849 44.1154 23.9798 44.1009C24.1202 44.0961 24.2557 44.0816 24.401 44.067C24.5365 44.0574 24.6721 44.0428 24.8077 44.0235C24.8125 44.0283 24.8125 44.0235 24.8173 44.0235C25.0691 43.9944 25.316 43.9557 25.5581 43.9121C25.7275 43.8831 25.897 43.8492 26.0664 43.8104V53.0092C25.0788 53.1399 24.0718 53.2077 23.0502 53.2077C20.5326 53.2077 18.1071 52.8059 15.8413 52.0506C8.96639 49.7945 3.5149 44.3817 1.21037 37.5262C0.847256 36.4659 0.566451 35.3669 0.358268 34.2389C0.266281 33.7208 0.193659 33.1979 0.135561 32.6702C0.111354 32.4814 0.0968293 32.2926 0.0823049 32.0989C0.0532561 31.8036 0.0387317 31.5034 0.0193659 31.2081V31.1887C0.00968293 30.8789 0 30.5594 0 30.2495C0 28.2306 0.261439 26.2601 0.755268 24.3962C2.84194 16.5336 8.96639 10.3075 16.7611 8.08044C16.8047 8.07075 16.8386 8.05623 16.887 8.04655C17.0516 8.00782 17.2162 7.95456 17.3809 7.92067L19.2012 7.43168L39.8646 1.89789C40.0776 2.78872 40.1938 3.71344 40.1938 4.66721C40.1938 7.52367 39.1868 10.1526 37.502 12.1908C37.4826 12.215 37.4681 12.2296 37.4487 12.2538C38.1459 12.8105 38.8043 13.4109 39.4337 14.0451C43.4279 18.0781 45.9552 23.5828 46.1101 29.6588C46.1149 29.8573 46.1149 30.051 46.1149 30.2495Z" fill="#FFFFFF"/>
<path d="M30.264 41.196V52.1377C32.4475 51.4164 34.4954 50.3754 36.34 49.0634C38.4558 47.5674 40.31 45.718 41.8206 43.6022C43.1423 41.7625 44.1929 39.7145 44.924 37.5214H33.9338C31.9053 37.5214 30.264 39.1675 30.264 41.196Z" fill="#FFFFFF"/>
<path d="M0 80.1021L36.5143 70.2981C42.1207 68.7924 46.0181 63.7089 46.0181 57.904V54.4665L9.50379 64.2705C3.89738 65.7762 0 70.8597 0 76.6646L0 80.1021Z" fill="#FFFFFF"/>
</g>
<defs>
<clipPath id="clip0_708_3798">
<rect width="224" height="79.7292" fill="white" transform="translate(0 0.372864)"/>
</clipPath>
</defs>
</svg>
